# xmcd CD database file
#
# Track frame offsets:
#	150
#	2285
#	13971
#	24840
#	26981
#	39315
#	41552
#	58194
#	71390
#	75366
#	90640
#	105445
#	117837
#	131674
#	133697
#	151240
#	153117
#	158604
#	170233
#	180051
#	196768
#	213983
#	221182
#	234787
#	258345
#	271130
#	283625
#	296718
#	302975
#	309716
#	311092
#	330150
#	335692
#
# Disc length: 4651 seconds
#
# Revision: 0
# Processed by: cddbd v1.5.1PL2 Copyright (c) Steve Scherf et al.
# Submitted via: CDex 1.51
#
DISCID=b9122921
DTITLE=Hank Williams III - Live at the Orange Peel [CD1]
DYEAR=2004
DGENRE=Country
TTITLE0=Intro
TTITLE1=Straight to Hell
TTITLE2=Thrown Out of the Bar
TTITLE3=Intro
TTITLE4=Little Bit of Smoke and a Whole Lotta Wine
TTITLE5=Intro
TTITLE6=I Don't Know
TTITLE7=87 Southbound
TTITLE8=Intro
TTITLE9=Trashville
TTITLE10=Drinkin' Over Mama
TTITLE11=Six Pack of Beer
TTITLE12=Country Heroes
TTITLE13=INtro
TTITLE14=7 Months, 39 Days
TTITLE15=Intro
TTITLE16=Long Haired Redneck
TTITLE17=If You Don't Like Hank Williams
TTITLE18=My Bucket's Got a Hole in It
TTITLE19=Cocaine Blues
TTITLE20=Missippi Mud
TTITLE21=Special Thank Yous
TTITLE22=Nighttime Ramblin' Man
TTITLE23=Only Hell My Mama Ever Raised
TTITLE24=If the Shoe Fits
TTITLE25=Devil is my Friend
TTITLE26=One Horse Town
TTITLE27=Intro (Evil, Come Here Real Quick)
TTITLE28=Up In Smoke
TTITLE29=Intro
TTITLE30=Whiskey, Weed and Women
TTITLE31=Intro (Fuck Toby Kieth)
TTITLE32=Dick in Dixie
EXTD=YEAR: 2004
EXTT0=
EXTT1=
EXTT2=
EXTT3=
EXTT4=
EXTT5=
EXTT6=
EXTT7=
EXTT8=
EXTT9=
EXTT10=
EXTT11=
EXTT12=
EXTT13=
EXTT14=
EXTT15=
EXTT16=
EXTT17=
EXTT18=
EXTT19=
EXTT20=
EXTT21=
EXTT22=
EXTT23=
EXTT24=
EXTT25=
EXTT26=
EXTT27=
EXTT28=
EXTT29=
EXTT30=
EXTT31=
EXTT32=
PLAYORDER=
